<?xml version="1.0" encoding="utf-8"?>
<!-- Generator: Adobe Illustrator 19.2.0, SVG Export Plug-In . SVG Version: 6.00 Build 0)  -->
<svg version="1.1" id="Layer_1" xmlns="http://www.w3.org/2000/svg" xmlns:xlink="http://www.w3.org/1999/xlink" x="0px" y="0px"
	 viewBox="0 0 713.5 78.9" style="enable-background:new 0 0 713.5 78.9;" xml:space="preserve">
<style type="text/css">
	.st0{fill:#900020;}
</style>
<g>
	<path class="st0" d="M461.2,78c-6.3,0-12.2,0-18.5,0c0-1.7,0-3.4,0-5.1c0-15.4,0-30.9,0-46.3c0-7.9,5.2-14.4,13.5-16.4
		c1.6-0.4,3-1.2,4.7-1.2c1.9,0,3.8,0,5.7,0c13.7,0,27.4,0,41.1,0c4.1,0,9.4,1.7,13.2,4.1c4.1,2.7,8.3,9.2,8.3,13.7
		c0.1,17.3,0,34.6,0,52.1c-5.8,0-18.5,0-18.5,0s0.1-30.4,0.1-44.9c0-2.6-0.9-10.6-9.7-10.6c-5.3,0-18.3,0-29.4,0
		c-4.8,0-10.4,3.2-10.4,10.5C461.2,49.5,461.2,61.4,461.2,78z"/>
	<path class="st0" d="M0,79.1C0,52.6,0,26.4,0,0c6.7,0,13.3,0,20.2,0c-0.1-0.1,0.2,0,0.3,0.1c0.1,0.1,0,41.5,0,62.4
		c16.8,0,33.5,0,50.3,0c0,5.3,0,16.5,0,16.5S21.9,79.1,0,79.1z"/>
	<path class="st0" d="M534.4,23.6c0-4.8,0-9,0-13.4c28,0,84.3,0,84.3,0s0,10.7,0,13.1c-10.6,0-21,0-31.8,0c0,18.6,0,37,0,55.6
		c-7,0-13.6,0-20.6,0c0-18.3,0-36.7,0-55.3C555.7,23.6,545.3,23.6,534.4,23.6z"/>
	<path class="st0" d="M385.2,79.1c0-5.4,0-10.3,0-15.3c9,0,17.9,0,26.3,0c4.7-1.5,5.6-4.6,5.6-8.6c-0.2-8.2-0.1-15.1-0.1-23.3
		c0-4.6-4.5-6.5-8.5-6.4c-8,0.2-16.1,0-24.3,0c0-5.1,0-10,0-15.4c1.2,0,2.5,0,3.8,0c9.8,0,19.6,0,29.3,0c10.3,0,17.2,6.2,17.2,16.4
		c0,12.4-0.1,24.7,0.1,37.1c0.1,2.8-1.1,5-2.4,6.7c-4,5.3-9.3,8.8-16.3,8.8C405.7,79.1,395.6,79.1,385.2,79.1z"/>
	<path class="st0" d="M299.7,78h-15.5V27.6c1.2,0,2.5,0,3.8,0c14.1,0,28.1,0,42.2,0c4.1,0,7.8,1.4,10.4,4.6c1.7,2.1,3.2,4.5,3.2,7.4
		c0,12.7,0,25.3,0,38.2c-5.1,0-10,0-15.1,0c0.1,0.1-0.1,0-0.2-0.2c-0.1-0.1-0.2-0.3-0.2-0.4c0-8.9,0-26.1,0-33.6
		c0-2-1.6-3.6-3.6-3.6h-25V78z"/>
	<path class="st0" d="M80.2,27.7h13.4c0,0,0.1,6,0,10.1c-0.1,3.9-0.1,10.2-0.1,14.1v9.5c0,2.3,1.9,4.2,4.2,4.2h25.6V27.7h13.4V78
		c-15,0-29.9,0.2-44.8-0.1c-5-0.1-9.5-2.4-11.6-8.3V27.7H80.2z"/>
	<path class="st0" d="M184.6,52.7c8.7,8.7,16.9,16.9,25.2,25.2c-5.8,0-11.8,0-18.2,0c-4.9-5.2-10.1-10.7-15.4-16.4
		c-4.6,4-12.6,13.7-15,16.4c-6.3,0-12.6,0-19.6,0L165,53.5c-1.5-2-23.2-26-23.2-26s14.4,0,17.5,0c4.9,5.4,10,10.9,15.2,16.7
		c5.1-5.6,10.1-11,15.1-16.5c5.7,0,11.5,0,17.4,0C200.1,35.2,185.4,51.3,184.6,52.7z"/>
	<path class="st0" d="M361.5,10.1c4,0,7.9,0,12,0c0,22.8,0,69,0,69h-12C361.5,79.1,361.5,33.3,361.5,10.1z"/>
	<path class="st0" d="M375.9,10.1h6c0,0,0,7.2,0,10c0,19.5,0,39.3,0,59c-2,0-3.9,0-6,0C375.9,56.3,375.9,10.1,375.9,10.1z"/>
	<path class="st0" d="M352.2,10.1c1.7,0,3.2,0,4.8,0c0,22.9,0,46,0,69c-1.4,0-3.1,0-4.8,0C352.2,56.4,352.2,33.3,352.2,10.1z"/>
	<path class="st0" d="M495,60.5c-6.1,0-12.1,0-18.2,0c0-6,0-12,0-18.2c5.9,0,12,0,18.2,0C495,48.1,495,54.1,495,60.5z"/>
	<path class="st0" d="M645.5,78c-6.3,0-12.2,0-18.5,0c0-1.7,0-3.4,0-5.1c0-15.4,0-30.9,0-46.3c0-7.9,5.2-14.4,13.5-16.4
		c1.6-0.4,3-1.2,4.7-1.2c1.9,0,3.8,0,5.7,0c13.7,0,27.4,0,41.1,0c4.1,0,9.4,1.7,13.2,4.1c4.1,2.7,8.3,9.2,8.3,13.7
		c0.1,17.3,0,34.6,0,52.1c-5.8,0-18.5,0-18.5,0s0.1-30.4,0.1-44.9c0-2.6-0.9-10.6-9.7-10.6c-5.3,0-18.3,0-29.4,0
		c-4.8,0-10.4,3.2-10.4,10.5C645.5,49.5,645.5,61.4,645.5,78z"/>
	<path class="st0" d="M679.3,60.5c-6.1,0-12.1,0-18.2,0c0-6,0-12,0-18.2c5.9,0,12,0,18.2,0C679.3,48.1,679.3,54.1,679.3,60.5z"/>
	<path class="st0" d="M277.9,35.8c-2.6-6.6-7.9-8-13.6-8.1c-11.3-0.3-22.6-0.1-33.9,0c-2.6,0-5,1-7.4,1.8c-2.5,0.8-3.6,3-5.3,4.5
		c-0.7,0.6-0.9,1.7-1.5,2.8c0,9.7,0.1,19.8-0.1,29.9c0,1.8,0.4,3.5,1.2,4.6c3.1,4.1,7.1,6.8,12.5,6.8c11.5,0,22.9,0,34.4,0
		c2.7,0,5.1-0.7,7.4-2.1c3.8-2.3,6.5-5.3,6.4-10.3C277.8,55.6,277.9,45.5,277.9,35.8z M263.7,60.5c0,3.4-2.7,6.1-6.1,6.1h-21.7
		c-3.4,0-6.1-2.7-6.1-6.1V44.8c0-3.4,2.7-6.1,6.1-6.1h21.7c3.4,0,6.1,2.7,6.1,6.1V60.5z"/>
</g>
</svg>
